<svg xmlns="http://www.w3.org/2000/svg" aria-hidden="true" style="position:absolute;width:0;height:0;overflow:hidden">
  <defs>

    <symbol id="icon-facebook" viewBox="0 0 16 32">
      <path fill="#fff" d="M14.143 15.972h-4.034v14.865H3.997V15.972H1.09v-5.224h2.907V7.367c0-2.418 1.142-6.203 6.166-6.203l4.527.019v5.071h-3.285c-.539 0-1.296.271-1.296 1.424v3.075h4.567l-.534 5.219z" style="fill:var(--color1, #fff)"/>
    </symbol>

    <symbol id="icon-telegram1" viewBox="0 0 44 32">
      <path fill="#fff" d="m17.343 21.048-.675 8.86c.966 0 1.384-.387 1.885-.852l4.527-4.038 9.381 6.412c1.72.895 2.933.424 3.397-1.477l6.157-26.929.002-.002c.546-2.374-.92-3.302-2.596-2.72L3.227 13.235c-2.47.895-2.433 2.18-.42 2.762l9.253 2.686L33.554 6.131c1.011-.625 1.931-.279 1.175.346l-17.386 14.57z" style="fill:var(--color1, #fff)"/>
    </symbol>

    <symbol id="icon-github" viewBox="0 0 32 32">
      <path fill="#fff" d="M16 0C7.212 0 0 7.212 0 16c0 7.499 5.262 14.312 12.25 16v-5.293c-.692.152-1.33.156-2.034-.052-.946-.279-1.714-.909-2.284-1.869-.364-.613-1.008-1.278-1.68-1.23l-.165-1.868c1.453-.124 2.711.886 3.457 2.14.332.558.713.884 1.203 1.029.473.14.982.072 1.574-.137.149-1.186.692-1.63 1.102-2.255v-.001c-4.167-.622-5.828-2.832-6.488-4.578-.874-2.317-.405-5.212 1.14-7.041.03-.036.084-.129.063-.194-.708-2.139.155-3.909.187-4.097.817.242.95-.243 3.551 1.337l.449.27c.188.112.129.048.317.034A13.544 13.544 0 0 1 16 7.723c1.136.015 2.273.178 3.404.484l.145.015c-.013-.002.04-.009.127-.062 3.248-1.968 3.132-1.324 4.003-1.608.032.188.883 1.987.182 4.099-.095.291 2.816 2.956 1.203 7.235-.659 1.746-2.32 3.957-6.487 4.578v.001c.534.814 1.176 1.247 1.173 2.927V32C26.738 30.312 32 23.499 32 16c0-8.788-7.212-16-16-16z" style="fill:var(--color1, #fff)"/>
    </symbol>

    <symbol id="icon-vector" viewBox="0 0 38 64">
      <path stroke-linejoin="round" stroke-linecap="round" stroke-miterlimit="4" stroke-width="12.8" d="M6.4 6.4l23.106 25.6-23.106 25.6"></path>
    </symbol>

    <symbol id="icon-close" viewBox="0 0 60 60">
      <path d="M30 25.758l-21.213-21.213-4.242 4.242 21.213 21.213-21.213 21.213 4.242 4.242 21.213-21.213 21.213 21.213 4.242-4.242-21.213-21.213 21.213-21.213-4.242-4.242-21.213 21.213z"></path>
    </symbol>

    <symbol id="icon-checked" viewBox="0 0 64 64"><path d="M8 2h48a8 8 0 0 1 8 8v44a8 8 0 0 1-8 8H8a8 8 0 0 1-8-8V10a8 8 0 0 1 8-8z"/>
      <path fill="#fff" stroke="#fff" stroke-width=".8" d="m15.828 33.007-.275-.263-4.134 3.916 14.563 13.893 30.597-29.188-4.106-3.917-26.49 25.247-10.155-9.687z" style="fill:var(--color1, #fff);stroke:var(--color1, #fff)"/>
    </symbol>

    <symbol id="icon-checkbox" viewBox="0 0 64 64">
      <path d="M56.889 8.667v46.666H7.111V8.667h49.778zm0-6.667H7.111C3.2 2 0 5 0 8.667v46.666C0 59 3.2 62 7.111 62h49.778C60.8 62 64 59 64 55.333V8.667C64 5 60.8 2 56.889 2z"/>
    </symbol>

    <symbol id="icon-email" viewBox="0 0 64 64">
      <path d="M53.333 10.667H10.666c-2.933 0-5.307 2.4-5.307 5.333l-.027 32c0 2.933 2.4 5.333 5.333 5.333h42.667c2.933 0 5.333-2.4 5.333-5.333V16c0-2.933-2.4-5.333-5.333-5.333zM52.267 22 33.414 33.787a2.699 2.699 0 0 1-2.827 0L11.734 22a2.282 2.282 0 0 1-1.067-1.92c0-1.787 1.947-2.853 3.467-1.92l17.867 11.173L49.868 18.16c1.52-.933 3.467.133 3.467 1.92 0 .773-.4 1.493-1.067 1.92z"/>
    </symbol>

    <symbol id="icon-phone" viewBox="0 0 64 64">
      <path d="m49.764 39.547-6.535-.746a5.12 5.12 0 0 0-4.22 1.467l-4.734 4.735a38.714 38.714 0 0 1-16.957-16.957l4.76-4.76a5.123 5.123 0 0 0 1.467-4.22l-.746-6.484a5.15 5.15 0 0 0-5.12-4.554h-4.451c-2.908 0-5.326 2.419-5.146 5.326C9.446 35.328 27.02 52.877 48.968 54.24c2.907.18 5.326-2.239 5.326-5.146v-4.451c.026-2.599-1.93-4.786-4.529-5.095z"/>
    </symbol>

    <symbol id="icon-person" viewBox="0 0 64 64">
      <path d="M32 32c5.893 0 10.667-4.773 10.667-10.667S37.894 10.666 32 10.666c-5.893 0-10.667 4.773-10.667 10.667S26.106 32 32 32zm0 5.333c-7.12 0-21.333 3.573-21.333 10.667v2.667c0 1.467 1.2 2.667 2.667 2.667h37.333c1.467 0 2.667-1.2 2.667-2.667V48c0-7.093-14.213-10.667-21.333-10.667z"/>
    </symbol>

    <symbol id="icon-home" viewBox="0 0 35 32">
      <path d="M32.64 15.4c0.256-0.274 0.413-0.644 0.413-1.050 0-0.47-0.21-0.89-0.541-1.173l-0.002-0.002-14.773-12.749c-0.319-0.265-0.733-0.425-1.184-0.425-0.466 0-0.892 0.171-1.218 0.454l0.002-0.002-14.821 13.403c-0.316 0.282-0.515 0.69-0.515 1.145 0 0.42 0.169 0.8 0.443 1.077l-0-0 0.373 0.381c0.613 0.635 1.611 0.709 2.224 0.168l1.107-0.979v14.328c0.006 0.879 0.72 1.589 1.6 1.589 0.005 0 0.009-0 0.014-0h5.775c0.004 0 0.009 0 0.013 0 0.88 0 1.594-0.71 1.6-1.589v-10.025h7.371v10.024c-0.013 0.88 0.624 1.589 1.515 1.589h6.123c0.003 0 0.007 0 0.011 0 0.88 0 1.594-0.71 1.6-1.589v-14.126l0.685 0.592c0.376 0.325 1.168 0.064 1.765-0.587l0.421-0.453z"/>
    </symbol>

    <symbol id="icon-dash" viewBox="0 0 43 32">
      <path fill="#e1e1e1" style="fill: var(--color2, #e1e1e1)" d="M32.014 0c1.928 0 3.75 0.52 5.464 1.561s3.107 2.537 4.178 4.488c1.029 1.951 1.543 4.25 1.543 6.894s-0.643 5.225-1.928 7.74c-0.429 0.91-1.2 2.081-2.315 3.512-1.157 1.43-2.228 2.666-3.214 3.707l-4.050 4.098-2.893-4.813c2.063-1.302 3.824-2.855 5.306-4.646l0.030-0.037c1.542-1.821 2.314-3.49 2.314-5.008 0-0.781-0.171-1.41-0.514-1.886-1.5 1.084-3.172 1.626-5.014 1.626-1.328 0-2.593-0.412-3.793-1.236-1.237-0.782-2.237-1.834-2.935-3.078l-0.022-0.043c-0.771-1.258-1.157-2.558-1.157-3.902 0-1.518 0.45-2.97 1.35-4.358 0.866-1.389 2.011-2.526 3.364-3.356l0.044-0.025c1.37-0.824 2.784-1.236 4.242-1.236zM8.936 0c1.928 0 3.75 0.52 5.464 1.561s3.107 2.536 4.178 4.488c1.029 1.951 1.543 4.25 1.543 6.894 0 1.864-0.236 3.534-0.707 5.008-0.472 1.518-1.286 3.1-2.443 4.748-1.114 1.561-2.164 2.862-3.15 3.902-0.986 1.084-2.7 2.883-5.143 5.398l-2.893-4.813c2.063-1.302 3.824-2.855 5.306-4.646l0.030-0.037c1.542-1.821 2.314-3.49 2.314-5.008 0-0.781-0.172-1.41-0.514-1.886-1.5 1.084-3.172 1.626-5.014 1.626-1.328 0-2.593-0.412-3.793-1.236-1.237-0.782-2.237-1.834-2.935-3.078l-0.022-0.043c-0.771-1.258-1.157-2.558-1.157-3.902 0-1.518 0.429-2.97 1.286-4.358 0.866-1.389 2.011-2.526 3.364-3.356l0.045-0.025c1.37-0.824 2.784-1.236 4.242-1.236z"></path>
    </symbol>

    <symbol id="icon-hamburger" width="20" height="14" viewBox="0 0 20 14" fill="none">
      <path d="M0 1H20" stroke="#D41443"/>
      <path d="M0 7H20" stroke="#D41443"/>
      <path d="M0 13H20" stroke="#D41443"/>
    </symbol>

  </defs>
</svg>